<svg width="50" height="50" viewBox="0 0 50 50" fill="none" xmlns="http://www.w3.org/2000/svg">
<path d="M42.4316 23.8184L23.9844 7.80762C23.8428 7.68555 23.6621 7.61719 23.4717 7.61719H19.1504C18.7891 7.61719 18.623 8.06641 18.8965 8.30078L35.9961 23.1445H7.42187C7.20703 23.1445 7.03125 23.3203 7.03125 23.5352V26.4648C7.03125 26.6797 7.20703 26.8555 7.42187 26.8555H35.9912L18.8916 41.6992C18.6182 41.9385 18.7842 42.3828 19.1455 42.3828H23.6133C23.7061 42.3828 23.7988 42.3486 23.8672 42.2852L42.4316 26.1816C42.6007 26.0347 42.7362 25.8531 42.8291 25.6493C42.922 25.4454 42.97 25.224 42.97 25C42.97 24.776 42.922 24.5546 42.8291 24.3507C42.7362 24.1469 42.6007 23.9653 42.4316 23.8184V23.8184Z" fill="#5B5C69"/>
</svg>
