<svg width="50" height="50" viewBox="0 0 50 50" fill="none" xmlns="http://www.w3.org/2000/svg">
<path d="M42.5781 23.1445H14.0088L31.1084 8.30078C31.3818 8.06152 31.2158 7.61719 30.8545 7.61719H26.5332C26.3428 7.61719 26.1621 7.68555 26.0205 7.80762L7.56836 23.8184C7.39936 23.9649 7.26383 24.146 7.17093 24.3494C7.07804 24.5529 7.02997 24.7739 7.02997 24.9976C7.02997 25.2212 7.07804 25.4423 7.17093 25.6457C7.26383 25.8492 7.39936 26.0303 7.56836 26.1768L26.1279 42.2852C26.2012 42.3486 26.2891 42.3828 26.3818 42.3828H30.8496C31.2109 42.3828 31.377 41.9336 31.1035 41.6992L14.0088 26.8555H42.5781C42.793 26.8555 42.9688 26.6797 42.9688 26.4648V23.5352C42.9688 23.3203 42.793 23.1445 42.5781 23.1445Z" fill="#5B5C69"/>
</svg>
